<svg font-family="ui-sans-serif, system-ui, sans-serif" height="440" role="img" viewBox="0 0 720 440" width="720" xmlns="http://www.w3.org/2000/svg">
<title>sol closure by package</title>
<rect fill="transparent" height="440" width="720" x="0" y="0"/>
<rect fill="#7fa7e8" height="10" width="10" x="0" y="10"/>
<text fill="#8b949e" font-size="12" x="15" y="19">
shared by every host
</text>
<rect fill="#2ecc71" height="10" width="10" x="169" y="10"/>
<text fill="#8b949e" font-size="12" x="184" y="19">
unique to this host
</text>
<rect fill="#7fa7e8" height="398" width="216" x="1" y="33"/>
<text fill="#14181f" font-size="13" x="5" y="48">
linux
</text>
<text fill="#14181f" font-size="12" x="5" y="63">
142.3 MiB
</text>
<rect fill="#2ecc71" height="232" width="312" x="219" y="33"/>
<text fill="#14181f" font-size="13" x="223" y="48">
prometheus
</text>
<text fill="#14181f" font-size="12" x="223" y="63">
120.0 MiB
</text>
<rect fill="#7fa7e8" height="164" width="312" x="219" y="267"/>
<text fill="#14181f" font-size="13" x="223" y="282">
systemd
</text>
<text fill="#14181f" font-size="12" x="223" y="297">
85.0 MiB
</text>
<rect fill="#2ecc71" height="194" width="186" x="533" y="33"/>
<text fill="#14181f" font-size="13" x="537" y="48">
postgresql
</text>
<text fill="#14181f" font-size="12" x="537" y="63">
60.0 MiB
</text>
<rect fill="#7fa7e8" height="107" width="186" x="533" y="229"/>
<text fill="#14181f" font-size="13" x="537" y="244">
glibc
</text>
<text fill="#14181f" font-size="12" x="537" y="259">
33.4 MiB
</text>
<rect fill="#7fa7e8" height="93" width="131" x="533" y="338"/>
<text fill="#14181f" font-size="13" x="537" y="353">
coreutils
</text>
<text fill="#14181f" font-size="12" x="537" y="368">
20.5 MiB
</text>
<rect fill="#7fa7e8" height="93" width="53" x="666" y="338"/>
<text fill="#14181f" font-size="13" x="670" y="353">
bash
</text>
</svg>
