<?xml version="1.0" encoding="UTF-8" standalone="no"?><svg width="948pt" height="403pt" viewBox="0.00 0.00 948.00 403.00" xmlns="http://www.w3.org/2000/svg" xmlns:xlink="http://www.w3.org/1999/xlink"><g id="graph0" class="graph" transform="scale(1 1) rotate(0) translate(4 399)"><g id="clust1" class="cluster"><title>cluster_0</title><path fill="#fbfbfe" stroke="#333333" d="M281.84,-250C281.84,-250 648.59,-250 648.59,-250 654.59,-250 660.59,-256 660.59,-262 660.59,-262 660.59,-375 660.59,-375 660.59,-381 654.59,-387 648.59,-387 648.59,-387 281.84,-387 281.84,-387 275.84,-387 269.84,-381 269.84,-375 269.84,-375 269.84,-262 269.84,-262 269.84,-256 275.84,-250 281.84,-250"/><text xml:space="preserve" text-anchor="start" x="436.34" y="-370.7" font-family="sans-serif" font-weight="bold" font-size="14.00" fill="#1f2328">🖥️ jerry</text></g><g id="clust2" class="cluster"><title>cluster_1</title><path fill="#fbfbfe" stroke="#333333" d="M530.34,-44C530.34,-44 919.59,-44 919.59,-44 925.59,-44 931.59,-50 931.59,-56 931.59,-56 931.59,-230 931.59,-230 931.59,-236 925.59,-242 919.59,-242 919.59,-242 530.34,-242 530.34,-242 524.34,-242 518.34,-236 518.34,-230 518.34,-230 518.34,-56 518.34,-56 518.34,-50 524.34,-44 530.34,-44"/><text xml:space="preserve" text-anchor="start" x="698.34" y="-225.7" font-family="sans-serif" font-weight="bold" font-size="14.00" fill="#1f2328">🖥️ tom</text></g><g id="node1" class="node"><title>internet</title><ellipse fill="#fbfbfe" stroke="#c0392b" cx="68.04" cy="-279" rx="68.04" ry="18"/><text xml:space="preserve" text-anchor="middle" x="68.04" y="-274.32" font-family="sans-serif" font-size="14.00" fill="#1f2328">🌐 Internet</text></g><g id="node4" class="node"><title>jerry/nginx</title><path fill="#ffe9cc" stroke="#c47a29" d="M366.59,-300.25C366.59,-300.25 325.09,-300.25 325.09,-300.25 319.09,-300.25 313.09,-294.25 313.09,-288.25 313.09,-288.25 313.09,-269.75 313.09,-269.75 313.09,-263.75 319.09,-257.75 325.09,-257.75 325.09,-257.75 366.59,-257.75 366.59,-257.75 372.59,-257.75 378.59,-263.75 378.59,-269.75 378.59,-269.75 378.59,-288.25 378.59,-288.25 378.59,-294.25 372.59,-300.25 366.59,-300.25"/><text xml:space="preserve" text-anchor="middle" x="345.84" y="-282.95" font-family="sans-serif" font-size="14.00" fill="#1f2328">nginx</text><text xml:space="preserve" text-anchor="middle" x="345.84" y="-265.7" font-family="sans-serif" font-size="14.00" fill="#1f2328">(proxy)</text></g><g id="edge1" class="edge"><title>internet&#45;&gt;jerry/nginx</title><path fill="none" stroke="#c0392b" d="M136.51,-279C187.89,-279 257.11,-279 301.36,-279"/><polygon fill="#c0392b" stroke="#c0392b" points="301.08,-282.5 311.08,-279 301.08,-275.5 301.08,-282.5"/><text xml:space="preserve" text-anchor="middle" x="206.96" y="-282.05" font-family="sans-serif" font-size="11.00" fill="#1f2328">hs.ts.example :443</text></g><g id="node2" class="node"><title>lan</title><ellipse fill="#fbfbfe" stroke="#27893f" cx="885.97" cy="-18" rx="49.63" ry="18"/><text xml:space="preserve" text-anchor="middle" x="885.97" y="-13.32" font-family="sans-serif" font-size="14.00" fill="#1f2328">🏠 LAN</text></g><g id="node3" class="node"><title>jerry/headscale</title><path fill="#ffe9cc" stroke="#c47a29" d="M640.59,-300.25C640.59,-300.25 548.09,-300.25 548.09,-300.25 542.09,-300.25 536.09,-294.25 536.09,-288.25 536.09,-288.25 536.09,-269.75 536.09,-269.75 536.09,-263.75 542.09,-257.75 548.09,-257.75 548.09,-257.75 640.59,-257.75 640.59,-257.75 646.59,-257.75 652.59,-263.75 652.59,-269.75 652.59,-269.75 652.59,-288.25 652.59,-288.25 652.59,-294.25 646.59,-300.25 640.59,-300.25"/><text xml:space="preserve" text-anchor="middle" x="594.34" y="-282.95" font-family="sans-serif" font-size="14.00" fill="#1f2328">headscale</text><text xml:space="preserve" text-anchor="middle" x="594.34" y="-265.7" font-family="sans-serif" font-size="14.00" fill="#1f2328">(mesh control)</text></g><g id="edge3" class="edge"><title>jerry/nginx&#45;&gt;jerry/headscale</title><path fill="none" stroke="#4a76c4" d="M379.06,-279C415.71,-279 476.63,-279 524.16,-279"/><polygon fill="#4a76c4" stroke="#4a76c4" points="524.11,-282.5 534.11,-279 524.11,-275.5 524.11,-282.5"/><text xml:space="preserve" text-anchor="middle" x="470.09" y="-282.05" font-family="sans-serif" font-size="11.00" fill="#1f2328">hs :8080</text></g><g id="node7" class="node"><title>tom/grafana</title><path fill="#ffe9cc" stroke="#c47a29" d="M622.59,-155.25C622.59,-155.25 566.09,-155.25 566.09,-155.25 560.09,-155.25 554.09,-149.25 554.09,-143.25 554.09,-143.25 554.09,-124.75 554.09,-124.75 554.09,-118.75 560.09,-112.75 566.09,-112.75 566.09,-112.75 622.59,-112.75 622.59,-112.75 628.59,-112.75 634.59,-118.75 634.59,-124.75 634.59,-124.75 634.59,-143.25 634.59,-143.25 634.59,-149.25 628.59,-155.25 622.59,-155.25"/><text xml:space="preserve" text-anchor="middle" x="594.34" y="-137.95" font-family="sans-serif" font-size="14.00" fill="#1f2328">grafana</text><text xml:space="preserve" text-anchor="middle" x="594.34" y="-120.7" font-family="sans-serif" font-size="14.00" fill="#1f2328">(monitor)</text></g><g id="edge2" class="edge"><title>jerry/nginx&#45;&gt;tom/grafana</title><path fill="none" stroke="#4a76c4" d="M375.11,-257.32C408.2,-232.61 465.23,-192.03 518.34,-164 526.19,-159.86 534.74,-155.93 543.16,-152.36"/><polygon fill="#4a76c4" stroke="#4a76c4" points="544.38,-155.65 552.31,-148.63 541.73,-149.17 544.38,-155.65"/><text xml:space="preserve" text-anchor="middle" x="470.09" y="-216.92" font-family="sans-serif" font-size="11.00" fill="#1f2328">grafana :3000</text></g><g id="node5" class="node"><title>jerry/+base</title><path fill="#f0f0f0" stroke="#999999" d="M401.84,-354C401.84,-354 289.84,-354 289.84,-354 283.84,-354 277.84,-348 277.84,-342 277.84,-342 277.84,-330 277.84,-330 277.84,-324 283.84,-318 289.84,-318 289.84,-318 401.84,-318 401.84,-318 407.84,-318 413.84,-324 413.84,-330 413.84,-330 413.84,-342 413.84,-342 413.84,-348 407.84,-354 401.84,-354"/><text xml:space="preserve" text-anchor="middle" x="345.84" y="-332.3" font-family="sans-serif" font-size="11.00" fill="#1f2328">+ 11 system services</text></g><g id="node6" class="node"><title>tom/exporter</title><path fill="#e6f0ff" stroke="#4a76c4" d="M911.59,-152C911.59,-152 860.34,-152 860.34,-152 854.34,-152 848.34,-146 848.34,-140 848.34,-140 848.34,-128 848.34,-128 848.34,-122 854.34,-116 860.34,-116 860.34,-116 911.59,-116 911.59,-116 917.59,-116 923.59,-122 923.59,-128 923.59,-128 923.59,-140 923.59,-140 923.59,-146 917.59,-152 911.59,-152"/><text xml:space="preserve" text-anchor="middle" x="885.97" y="-129.32" font-family="sans-serif" font-size="14.00" fill="#1f2328">exporter</text></g><g id="edge4" class="edge"><title>tom/grafana&#45;&gt;tom/exporter</title><path fill="none" stroke="#4a76c4" d="M635,-134C687.51,-134 780.02,-134 836.57,-134"/><polygon fill="#4a76c4" stroke="#4a76c4" points="836.55,-137.5 846.55,-134 836.55,-130.5 836.55,-137.5"/><text xml:space="preserve" text-anchor="middle" x="749.34" y="-137.05" font-family="sans-serif" font-size="11.00" fill="#1f2328">scrapes</text></g><g id="node8" class="node"><title>tom/tailscale</title><path fill="#ffe9cc" stroke="#c47a29" d="M634.21,-94.25C634.21,-94.25 554.46,-94.25 554.46,-94.25 548.46,-94.25 542.46,-88.25 542.46,-82.25 542.46,-82.25 542.46,-63.75 542.46,-63.75 542.46,-57.75 548.46,-51.75 554.46,-51.75 554.46,-51.75 634.21,-51.75 634.21,-51.75 640.21,-51.75 646.21,-57.75 646.21,-63.75 646.21,-63.75 646.21,-82.25 646.21,-82.25 646.21,-88.25 640.21,-94.25 634.21,-94.25"/><text xml:space="preserve" text-anchor="middle" x="594.34" y="-76.95" font-family="sans-serif" font-size="14.00" fill="#1f2328">tailscale</text><text xml:space="preserve" text-anchor="middle" x="594.34" y="-59.7" font-family="sans-serif" font-size="14.00" fill="#1f2328">(mesh node)</text></g><g id="edge6" class="edge"><title>tom/tailscale&#45;&gt;lan</title><path fill="none" stroke="#27893f" d="M646.45,-63.29C698.04,-53.5 777.44,-38.42 830.27,-28.39"/><polygon fill="#27893f" stroke="#27893f" points="830.79,-31.85 839.97,-26.55 829.49,-24.97 830.79,-31.85"/><text xml:space="preserve" text-anchor="middle" x="749.34" y="-59.8" font-family="sans-serif" font-size="11.00" fill="#1f2328">advertise 192.168.1.0/24</text></g><g id="edge5" class="edge"><title>tom/tailscale&#45;&gt;jerry/nginx</title><path fill="none" stroke="#4a76c4" d="M542.24,-90.15C508,-103.58 463.55,-124.95 431.84,-154.5 402.76,-181.59 378.27,-220.35 363.16,-247.4"/><polygon fill="#4a76c4" stroke="#4a76c4" points="360.09,-245.71 358.37,-256.17 366.24,-249.07 360.09,-245.71"/><text xml:space="preserve" text-anchor="middle" x="470.09" y="-157.55" font-family="sans-serif" font-size="11.00" fill="#1f2328">mesh</text></g><g id="node9" class="node"><title>tom/+base</title><path fill="#f0f0f0" stroke="#999999" d="M650.34,-209C650.34,-209 538.34,-209 538.34,-209 532.34,-209 526.34,-203 526.34,-197 526.34,-197 526.34,-185 526.34,-185 526.34,-179 532.34,-173 538.34,-173 538.34,-173 650.34,-173 650.34,-173 656.34,-173 662.34,-179 662.34,-185 662.34,-185 662.34,-197 662.34,-197 662.34,-203 656.34,-209 650.34,-209"/><text xml:space="preserve" text-anchor="middle" x="594.34" y="-187.3" font-family="sans-serif" font-size="11.00" fill="#1f2328">+ 11 system services</text></g></g></svg>
